<mxfile host="app.diagrams.net" modified="2020-12-19T21:27:11.099Z" agent="5.0 (Windows NT 10.0; Win64; x64) AppleWebKit/537.36 (KHTML, like Gecko) Chrome/87.0.4280.88 Safari/537.36" etag="KopJEo9bMHj5tkODQre-" version="13.9.3" type="github">
  <diagram id="C5RBs43oDa-KdzZeNtuy" name="Page-1">
    <mxGraphModel dx="1422" dy="794" grid="1" gridSize="10" guides="1" tooltips="1" connect="1" arrows="1" fold="1" page="1" pageScale="1" pageWidth="2336" pageHeight="1654" math="0" shadow="0">
      <root>
        <mxCell id="WIyWlLk6GJQsqaUBKTNV-0" />
        <mxCell id="WIyWlLk6GJQsqaUBKTNV-1" parent="WIyWlLk6GJQsqaUBKTNV-0" />
        <mxCell id="t-SWyce58LjskkZLz5Ns-0" value="&amp;lt;&amp;lt;enumeration&amp;gt;&amp;gt;&lt;br&gt;&lt;span style=&quot;background-color: rgb(255 , 255 , 255) ; color: rgb(53 , 56 , 51) ; font-family: &amp;#34;dejavu sans mono&amp;#34; , monospace ; font-size: 14px ; font-weight: bold ; text-align: left&quot;&gt;DayOfWeek&lt;/span&gt;" style="swimlane;fontStyle=0;align=center;verticalAlign=top;childLayout=stackLayout;horizontal=1;startSize=40;horizontalStack=0;resizeParent=1;resizeParentMax=0;resizeLast=0;collapsible=0;marginBottom=0;html=1;" vertex="1" parent="WIyWlLk6GJQsqaUBKTNV-1">
          <mxGeometry x="2055" y="840" width="140" height="160" as="geometry" />
        </mxCell>
        <mxCell id="t-SWyce58LjskkZLz5Ns-1" value="MONDAY&lt;br&gt;TUESDAY&lt;br&gt;WEDNESDAY&lt;br&gt;THURSDAY&lt;br&gt;FRIDAY&lt;br&gt;SATURDAY&lt;br&gt;SUNDAY" style="text;html=1;strokeColor=none;fillColor=none;align=left;verticalAlign=middle;spacingLeft=4;spacingRight=4;overflow=hidden;rotatable=0;points=[[0,0.5],[1,0.5]];portConstraint=eastwest;" vertex="1" parent="t-SWyce58LjskkZLz5Ns-0">
          <mxGeometry y="40" width="140" height="120" as="geometry" />
        </mxCell>
        <mxCell id="t-SWyce58LjskkZLz5Ns-2" value="&lt;p style=&quot;margin: 0px ; margin-top: 4px ; text-align: center&quot;&gt;&lt;i&gt;&amp;lt;&amp;lt;Interface&amp;gt;&amp;gt;&lt;/i&gt;&lt;br&gt;&lt;b&gt;NotPenguin&lt;/b&gt;&lt;/p&gt;&lt;hr size=&quot;1&quot;&gt;&lt;p style=&quot;margin: 0px ; margin-left: 4px&quot;&gt;&lt;/p&gt;&lt;p style=&quot;margin: 0px ; margin-left: 4px&quot;&gt;+description(): void&lt;/p&gt;" style="verticalAlign=top;align=left;overflow=fill;fontSize=12;fontFamily=Helvetica;html=1;" vertex="1" parent="WIyWlLk6GJQsqaUBKTNV-1">
          <mxGeometry x="70" y="380" width="190" height="70" as="geometry" />
        </mxCell>
        <mxCell id="t-SWyce58LjskkZLz5Ns-3" value="&lt;p style=&quot;margin: 0px ; margin-top: 4px ; text-align: center&quot;&gt;&lt;i&gt;&amp;lt;&amp;lt;Interface&amp;gt;&amp;gt;&lt;/i&gt;&lt;br&gt;&lt;b&gt;Move&lt;/b&gt;&lt;/p&gt;&lt;hr size=&quot;1&quot;&gt;&lt;p style=&quot;margin: 0px ; margin-left: 4px&quot;&gt;+stepAnother():void&lt;/p&gt;&lt;p style=&quot;margin: 0px ; margin-left: 4px&quot;&gt;+step(Tunnel tunnel):void&lt;/p&gt;" style="verticalAlign=top;align=left;overflow=fill;fontSize=12;fontFamily=Helvetica;html=1;" vertex="1" parent="WIyWlLk6GJQsqaUBKTNV-1">
          <mxGeometry x="1240" y="35" width="190" height="90" as="geometry" />
        </mxCell>
        <mxCell id="t-SWyce58LjskkZLz5Ns-4" value="&lt;p style=&quot;margin: 0px ; margin-top: 4px ; text-align: center&quot;&gt;&lt;i&gt;&amp;lt;&amp;lt;Interface&amp;gt;&amp;gt;&lt;/i&gt;&lt;br&gt;&lt;b&gt;SaySth&lt;/b&gt;&lt;/p&gt;&lt;hr size=&quot;1&quot;&gt;&lt;p style=&quot;margin: 0px ; margin-left: 4px&quot;&gt;+saySth():void&lt;/p&gt;" style="verticalAlign=top;align=left;overflow=fill;fontSize=12;fontFamily=Helvetica;html=1;" vertex="1" parent="WIyWlLk6GJQsqaUBKTNV-1">
          <mxGeometry x="720" y="40" width="190" height="80" as="geometry" />
        </mxCell>
        <mxCell id="t-SWyce58LjskkZLz5Ns-5" value="Abstract Class&#xa;Person" style="swimlane;fontStyle=1;align=center;verticalAlign=top;childLayout=stackLayout;horizontal=1;startSize=40;horizontalStack=0;resizeParent=1;resizeParentMax=0;resizeLast=0;collapsible=1;marginBottom=0;" vertex="1" parent="WIyWlLk6GJQsqaUBKTNV-1">
          <mxGeometry x="850" y="200" width="180" height="364" as="geometry" />
        </mxCell>
        <mxCell id="t-SWyce58LjskkZLz5Ns-6" value="# step: double&#xa;# age: int&#xa;# type: String&#xa;# sex: String&#xa;# name: String&#xa;# pointX: String" style="text;strokeColor=none;fillColor=none;align=left;verticalAlign=top;spacingLeft=4;spacingRight=4;overflow=hidden;rotatable=0;points=[[0,0.5],[1,0.5]];portConstraint=eastwest;" vertex="1" parent="t-SWyce58LjskkZLz5Ns-5">
          <mxGeometry y="40" width="180" height="104" as="geometry" />
        </mxCell>
        <mxCell id="t-SWyce58LjskkZLz5Ns-7" value="" style="line;strokeWidth=1;fillColor=none;align=left;verticalAlign=middle;spacingTop=-1;spacingLeft=3;spacingRight=3;rotatable=0;labelPosition=right;points=[];portConstraint=eastwest;" vertex="1" parent="t-SWyce58LjskkZLz5Ns-5">
          <mxGeometry y="144" width="180" height="8" as="geometry" />
        </mxCell>
        <mxCell id="t-SWyce58LjskkZLz5Ns-8" value="+ Person(name, age, sex, type)&#xa;+ getAge(): int&#xa;+ getName(): String&#xa;+ getSex(): String&#xa;+ getType(): String&#xa;+getX(): double&#xa;+ saySth(): void&#xa;+ step(Tunnel tunnel):void&#xa;+ stepAnother(): void&#xa;+setAge(age): void&#xa;+ setName(name): void&#xa;+setSex(sex): void&#xa;+ setType(type):void&#xa;+ toString(): String" style="text;strokeColor=none;fillColor=none;align=left;verticalAlign=top;spacingLeft=4;spacingRight=4;overflow=hidden;rotatable=0;points=[[0,0.5],[1,0.5]];portConstraint=eastwest;" vertex="1" parent="t-SWyce58LjskkZLz5Ns-5">
          <mxGeometry y="152" width="180" height="212" as="geometry" />
        </mxCell>
        <mxCell id="t-SWyce58LjskkZLz5Ns-9" value="Professor" style="swimlane;fontStyle=1;align=center;verticalAlign=top;childLayout=stackLayout;horizontal=1;startSize=26;horizontalStack=0;resizeParent=1;resizeParentMax=0;resizeLast=0;collapsible=1;marginBottom=0;" vertex="1" parent="WIyWlLk6GJQsqaUBKTNV-1">
          <mxGeometry x="540" y="644" width="230" height="140" as="geometry" />
        </mxCell>
        <mxCell id="t-SWyce58LjskkZLz5Ns-10" value="#emoState: int" style="text;strokeColor=none;fillColor=none;align=left;verticalAlign=top;spacingLeft=4;spacingRight=4;overflow=hidden;rotatable=0;points=[[0,0.5],[1,0.5]];portConstraint=eastwest;" vertex="1" parent="t-SWyce58LjskkZLz5Ns-9">
          <mxGeometry y="26" width="230" height="26" as="geometry" />
        </mxCell>
        <mxCell id="t-SWyce58LjskkZLz5Ns-11" value="" style="line;strokeWidth=1;fillColor=none;align=left;verticalAlign=middle;spacingTop=-1;spacingLeft=3;spacingRight=3;rotatable=0;labelPosition=right;points=[];portConstraint=eastwest;" vertex="1" parent="t-SWyce58LjskkZLz5Ns-9">
          <mxGeometry y="52" width="230" height="8" as="geometry" />
        </mxCell>
        <mxCell id="t-SWyce58LjskkZLz5Ns-12" value="+ getEmoState(): int&#xa;+ influenceOnState(Tunnel tunnel): int&#xa;+ saySth(): void&#xa;+ setEmoState(): void&#xa;+ stepAnother(): void" style="text;strokeColor=none;fillColor=none;align=left;verticalAlign=top;spacingLeft=4;spacingRight=4;overflow=hidden;rotatable=0;points=[[0,0.5],[1,0.5]];portConstraint=eastwest;" vertex="1" parent="t-SWyce58LjskkZLz5Ns-9">
          <mxGeometry y="60" width="230" height="80" as="geometry" />
        </mxCell>
        <mxCell id="t-SWyce58LjskkZLz5Ns-13" value="Scientist" style="swimlane;fontStyle=1;align=center;verticalAlign=top;childLayout=stackLayout;horizontal=1;startSize=26;horizontalStack=0;resizeParent=1;resizeParentMax=0;resizeLast=0;collapsible=1;marginBottom=0;" vertex="1" parent="WIyWlLk6GJQsqaUBKTNV-1">
          <mxGeometry x="660" y="970" width="220" height="150" as="geometry" />
        </mxCell>
        <mxCell id="t-SWyce58LjskkZLz5Ns-14" value="#happy: int" style="text;strokeColor=none;fillColor=none;align=left;verticalAlign=top;spacingLeft=4;spacingRight=4;overflow=hidden;rotatable=0;points=[[0,0.5],[1,0.5]];portConstraint=eastwest;" vertex="1" parent="t-SWyce58LjskkZLz5Ns-13">
          <mxGeometry y="26" width="220" height="26" as="geometry" />
        </mxCell>
        <mxCell id="t-SWyce58LjskkZLz5Ns-15" value="" style="line;strokeWidth=1;fillColor=none;align=left;verticalAlign=middle;spacingTop=-1;spacingLeft=3;spacingRight=3;rotatable=0;labelPosition=right;points=[];portConstraint=eastwest;" vertex="1" parent="t-SWyce58LjskkZLz5Ns-13">
          <mxGeometry y="52" width="220" height="8" as="geometry" />
        </mxCell>
        <mxCell id="t-SWyce58LjskkZLz5Ns-16" value="+ count(Penguin pen):int&#xa;+ getHappy(): int&#xa;+ influenceOnHappy(Penguin pen): int&#xa;+ saySth(): void&#xa;+stepAnother(): void&#xa;+ throwLists(): void" style="text;strokeColor=none;fillColor=none;align=left;verticalAlign=top;spacingLeft=4;spacingRight=4;overflow=hidden;rotatable=0;points=[[0,0.5],[1,0.5]];portConstraint=eastwest;" vertex="1" parent="t-SWyce58LjskkZLz5Ns-13">
          <mxGeometry y="60" width="220" height="90" as="geometry" />
        </mxCell>
        <mxCell id="t-SWyce58LjskkZLz5Ns-17" value="Leader" style="swimlane;fontStyle=1;align=center;verticalAlign=top;childLayout=stackLayout;horizontal=1;startSize=26;horizontalStack=0;resizeParent=1;resizeParentMax=0;resizeLast=0;collapsible=1;marginBottom=0;" vertex="1" parent="WIyWlLk6GJQsqaUBKTNV-1">
          <mxGeometry x="440" y="300" width="290" height="150" as="geometry" />
        </mxCell>
        <mxCell id="t-SWyce58LjskkZLz5Ns-18" value="# mood: int" style="text;strokeColor=none;fillColor=none;align=left;verticalAlign=top;spacingLeft=4;spacingRight=4;overflow=hidden;rotatable=0;points=[[0,0.5],[1,0.5]];portConstraint=eastwest;" vertex="1" parent="t-SWyce58LjskkZLz5Ns-17">
          <mxGeometry y="26" width="290" height="26" as="geometry" />
        </mxCell>
        <mxCell id="t-SWyce58LjskkZLz5Ns-19" value="" style="line;strokeWidth=1;fillColor=none;align=left;verticalAlign=middle;spacingTop=-1;spacingLeft=3;spacingRight=3;rotatable=0;labelPosition=right;points=[];portConstraint=eastwest;" vertex="1" parent="t-SWyce58LjskkZLz5Ns-17">
          <mxGeometry y="52" width="290" height="8" as="geometry" />
        </mxCell>
        <mxCell id="t-SWyce58LjskkZLz5Ns-20" value="+ getMood(): int&#xa;+ influenceOnMood(Temperature temp, long r): int&#xa;+ light(Object obj): void&#xa;+ saySth(): void&#xa;+ setMood(int m): void&#xa;+ stepAnother(): void" style="text;strokeColor=none;fillColor=none;align=left;verticalAlign=top;spacingLeft=4;spacingRight=4;overflow=hidden;rotatable=0;points=[[0,0.5],[1,0.5]];portConstraint=eastwest;" vertex="1" parent="t-SWyce58LjskkZLz5Ns-17">
          <mxGeometry y="60" width="290" height="90" as="geometry" />
        </mxCell>
        <mxCell id="t-SWyce58LjskkZLz5Ns-21" value="Student" style="swimlane;fontStyle=1;align=center;verticalAlign=top;childLayout=stackLayout;horizontal=1;startSize=26;horizontalStack=0;resizeParent=1;resizeParentMax=0;resizeLast=0;collapsible=1;marginBottom=0;" vertex="1" parent="WIyWlLk6GJQsqaUBKTNV-1">
          <mxGeometry x="960" y="1030" width="220" height="170" as="geometry" />
        </mxCell>
        <mxCell id="t-SWyce58LjskkZLz5Ns-22" value="# speed: int" style="text;strokeColor=none;fillColor=none;align=left;verticalAlign=top;spacingLeft=4;spacingRight=4;overflow=hidden;rotatable=0;points=[[0,0.5],[1,0.5]];portConstraint=eastwest;" vertex="1" parent="t-SWyce58LjskkZLz5Ns-21">
          <mxGeometry y="26" width="220" height="26" as="geometry" />
        </mxCell>
        <mxCell id="t-SWyce58LjskkZLz5Ns-23" value="" style="line;strokeWidth=1;fillColor=none;align=left;verticalAlign=middle;spacingTop=-1;spacingLeft=3;spacingRight=3;rotatable=0;labelPosition=right;points=[];portConstraint=eastwest;" vertex="1" parent="t-SWyce58LjskkZLz5Ns-21">
          <mxGeometry y="52" width="220" height="8" as="geometry" />
        </mxCell>
        <mxCell id="t-SWyce58LjskkZLz5Ns-24" value="+ comeIntoBrilliant(Brilliant brill): void&#xa;+ comeIntoStone(Stone stone): void&#xa;+ getSpeed: int&#xa;+ influenceOnSpeed(): int&#xa;+ saySth(): void&#xa;+setSpeed(int sp): void&#xa;+ stepAnother(): void" style="text;strokeColor=none;fillColor=none;align=left;verticalAlign=top;spacingLeft=4;spacingRight=4;overflow=hidden;rotatable=0;points=[[0,0.5],[1,0.5]];portConstraint=eastwest;" vertex="1" parent="t-SWyce58LjskkZLz5Ns-21">
          <mxGeometry y="60" width="220" height="110" as="geometry" />
        </mxCell>
        <mxCell id="t-SWyce58LjskkZLz5Ns-29" value="Time" style="swimlane;fontStyle=1;align=center;verticalAlign=top;childLayout=stackLayout;horizontal=1;startSize=26;horizontalStack=0;resizeParent=1;resizeParentMax=0;resizeLast=0;collapsible=1;marginBottom=0;" vertex="1" parent="WIyWlLk6GJQsqaUBKTNV-1">
          <mxGeometry x="2035" y="300" width="160" height="80" as="geometry" />
        </mxCell>
        <mxCell id="t-SWyce58LjskkZLz5Ns-31" value="" style="line;strokeWidth=1;fillColor=none;align=left;verticalAlign=middle;spacingTop=-1;spacingLeft=3;spacingRight=3;rotatable=0;labelPosition=right;points=[];portConstraint=eastwest;" vertex="1" parent="t-SWyce58LjskkZLz5Ns-29">
          <mxGeometry y="26" width="160" height="8" as="geometry" />
        </mxCell>
        <mxCell id="t-SWyce58LjskkZLz5Ns-32" value="+ mainn(long start): long&#xa;+ running(long time): long" style="text;strokeColor=none;fillColor=none;align=left;verticalAlign=top;spacingLeft=4;spacingRight=4;overflow=hidden;rotatable=0;points=[[0,0.5],[1,0.5]];portConstraint=eastwest;" vertex="1" parent="t-SWyce58LjskkZLz5Ns-29">
          <mxGeometry y="34" width="160" height="46" as="geometry" />
        </mxCell>
        <mxCell id="t-SWyce58LjskkZLz5Ns-33" value="Temperature" style="swimlane;fontStyle=1;align=center;verticalAlign=top;childLayout=stackLayout;horizontal=1;startSize=26;horizontalStack=0;resizeParent=1;resizeParentMax=0;resizeLast=0;collapsible=1;marginBottom=0;" vertex="1" parent="WIyWlLk6GJQsqaUBKTNV-1">
          <mxGeometry x="2020" y="490" width="180" height="120" as="geometry" />
        </mxCell>
        <mxCell id="t-SWyce58LjskkZLz5Ns-34" value="+ degree: int" style="text;strokeColor=none;fillColor=none;align=left;verticalAlign=top;spacingLeft=4;spacingRight=4;overflow=hidden;rotatable=0;points=[[0,0.5],[1,0.5]];portConstraint=eastwest;" vertex="1" parent="t-SWyce58LjskkZLz5Ns-33">
          <mxGeometry y="26" width="180" height="26" as="geometry" />
        </mxCell>
        <mxCell id="t-SWyce58LjskkZLz5Ns-35" value="" style="line;strokeWidth=1;fillColor=none;align=left;verticalAlign=middle;spacingTop=-1;spacingLeft=3;spacingRight=3;rotatable=0;labelPosition=right;points=[];portConstraint=eastwest;" vertex="1" parent="t-SWyce58LjskkZLz5Ns-33">
          <mxGeometry y="52" width="180" height="8" as="geometry" />
        </mxCell>
        <mxCell id="t-SWyce58LjskkZLz5Ns-36" value="+ getDegree(): int&#xa;+ increaseDegree(long r): int&#xa;+ setDegree(int d): void" style="text;strokeColor=none;fillColor=none;align=left;verticalAlign=top;spacingLeft=4;spacingRight=4;overflow=hidden;rotatable=0;points=[[0,0.5],[1,0.5]];portConstraint=eastwest;" vertex="1" parent="t-SWyce58LjskkZLz5Ns-33">
          <mxGeometry y="60" width="180" height="60" as="geometry" />
        </mxCell>
        <mxCell id="t-SWyce58LjskkZLz5Ns-37" value="Sound" style="swimlane;fontStyle=1;align=center;verticalAlign=top;childLayout=stackLayout;horizontal=1;startSize=26;horizontalStack=0;resizeParent=1;resizeParentMax=0;resizeLast=0;collapsible=1;marginBottom=0;" vertex="1" parent="WIyWlLk6GJQsqaUBKTNV-1">
          <mxGeometry x="2040" y="710" width="160" height="82" as="geometry" />
        </mxCell>
        <mxCell id="t-SWyce58LjskkZLz5Ns-40" value="+ soundClothes(): void&#xa;+ soundStalakt(): void&#xa;+ soundTunnel(): void" style="text;strokeColor=none;fillColor=none;align=left;verticalAlign=top;spacingLeft=4;spacingRight=4;overflow=hidden;rotatable=0;points=[[0,0.5],[1,0.5]];portConstraint=eastwest;" vertex="1" parent="t-SWyce58LjskkZLz5Ns-37">
          <mxGeometry y="26" width="160" height="56" as="geometry" />
        </mxCell>
        <mxCell id="t-SWyce58LjskkZLz5Ns-41" value="Smell" style="swimlane;fontStyle=1;align=center;verticalAlign=top;childLayout=stackLayout;horizontal=1;startSize=26;horizontalStack=0;resizeParent=1;resizeParentMax=0;resizeLast=0;collapsible=1;marginBottom=0;" vertex="1" parent="WIyWlLk6GJQsqaUBKTNV-1">
          <mxGeometry x="1960" y="110" width="310" height="110" as="geometry" />
        </mxCell>
        <mxCell id="t-SWyce58LjskkZLz5Ns-43" value="" style="line;strokeWidth=1;fillColor=none;align=left;verticalAlign=middle;spacingTop=-1;spacingLeft=3;spacingRight=3;rotatable=0;labelPosition=right;points=[];portConstraint=eastwest;" vertex="1" parent="t-SWyce58LjskkZLz5Ns-41">
          <mxGeometry y="26" width="310" height="8" as="geometry" />
        </mxCell>
        <mxCell id="t-SWyce58LjskkZLz5Ns-44" value="+ smellAfterTunnel(Cave cave, Student student): void&#xa;+ smellBrillGall(): void&#xa;+ smellStoneGall(): void&#xa;+ smellTunnel(long r): void" style="text;strokeColor=none;fillColor=none;align=left;verticalAlign=top;spacingLeft=4;spacingRight=4;overflow=hidden;rotatable=0;points=[[0,0.5],[1,0.5]];portConstraint=eastwest;" vertex="1" parent="t-SWyce58LjskkZLz5Ns-41">
          <mxGeometry y="34" width="310" height="76" as="geometry" />
        </mxCell>
        <mxCell id="t-SWyce58LjskkZLz5Ns-45" value="Map" style="swimlane;fontStyle=1;align=center;verticalAlign=top;childLayout=stackLayout;horizontal=1;startSize=26;horizontalStack=0;resizeParent=1;resizeParentMax=0;resizeLast=0;collapsible=1;marginBottom=0;" vertex="1" parent="WIyWlLk6GJQsqaUBKTNV-1">
          <mxGeometry x="20" y="140" width="360" height="60" as="geometry" />
        </mxCell>
        <mxCell id="t-SWyce58LjskkZLz5Ns-47" value="" style="line;strokeWidth=1;fillColor=none;align=left;verticalAlign=middle;spacingTop=-1;spacingLeft=3;spacingRight=3;rotatable=0;labelPosition=right;points=[];portConstraint=eastwest;" vertex="1" parent="t-SWyce58LjskkZLz5Ns-45">
          <mxGeometry y="26" width="360" height="8" as="geometry" />
        </mxCell>
        <mxCell id="t-SWyce58LjskkZLz5Ns-48" value="+ showMap(Corridor c, Cave c1, Tunnel tu, Cave c2, Stone st)" style="text;strokeColor=none;fillColor=none;align=left;verticalAlign=top;spacingLeft=4;spacingRight=4;overflow=hidden;rotatable=0;points=[[0,0.5],[1,0.5]];portConstraint=eastwest;" vertex="1" parent="t-SWyce58LjskkZLz5Ns-45">
          <mxGeometry y="34" width="360" height="26" as="geometry" />
        </mxCell>
        <mxCell id="t-SWyce58LjskkZLz5Ns-49" value="Stalakt" style="swimlane;fontStyle=1;align=center;verticalAlign=top;childLayout=stackLayout;horizontal=1;startSize=26;horizontalStack=0;resizeParent=1;resizeParentMax=0;resizeLast=0;collapsible=1;marginBottom=0;" vertex="1" parent="WIyWlLk6GJQsqaUBKTNV-1">
          <mxGeometry x="2060" y="1080" width="160" height="100" as="geometry" />
        </mxCell>
        <mxCell id="t-SWyce58LjskkZLz5Ns-50" value="+ x: double" style="text;strokeColor=none;fillColor=none;align=left;verticalAlign=top;spacingLeft=4;spacingRight=4;overflow=hidden;rotatable=0;points=[[0,0.5],[1,0.5]];portConstraint=eastwest;" vertex="1" parent="t-SWyce58LjskkZLz5Ns-49">
          <mxGeometry y="26" width="160" height="26" as="geometry" />
        </mxCell>
        <mxCell id="t-SWyce58LjskkZLz5Ns-51" value="" style="line;strokeWidth=1;fillColor=none;align=left;verticalAlign=middle;spacingTop=-1;spacingLeft=3;spacingRight=3;rotatable=0;labelPosition=right;points=[];portConstraint=eastwest;" vertex="1" parent="t-SWyce58LjskkZLz5Ns-49">
          <mxGeometry y="52" width="160" height="8" as="geometry" />
        </mxCell>
        <mxCell id="t-SWyce58LjskkZLz5Ns-52" value="+ getCoord(): double;&#xa;+ setCoord(): void" style="text;strokeColor=none;fillColor=none;align=left;verticalAlign=top;spacingLeft=4;spacingRight=4;overflow=hidden;rotatable=0;points=[[0,0.5],[1,0.5]];portConstraint=eastwest;" vertex="1" parent="t-SWyce58LjskkZLz5Ns-49">
          <mxGeometry y="60" width="160" height="40" as="geometry" />
        </mxCell>
        <mxCell id="t-SWyce58LjskkZLz5Ns-53" value="Abstract Class&#xa;Clothes" style="swimlane;fontStyle=1;align=center;verticalAlign=top;childLayout=stackLayout;horizontal=1;startSize=38;horizontalStack=0;resizeParent=1;resizeParentMax=0;resizeLast=0;collapsible=1;marginBottom=0;" vertex="1" parent="WIyWlLk6GJQsqaUBKTNV-1">
          <mxGeometry x="250" y="940" width="180" height="240" as="geometry" />
        </mxCell>
        <mxCell id="t-SWyce58LjskkZLz5Ns-54" value="# color: String&#xa;#material: String&#xa;# size: String&#xa;# warmEffect(): int" style="text;strokeColor=none;fillColor=none;align=left;verticalAlign=top;spacingLeft=4;spacingRight=4;overflow=hidden;rotatable=0;points=[[0,0.5],[1,0.5]];portConstraint=eastwest;" vertex="1" parent="t-SWyce58LjskkZLz5Ns-53">
          <mxGeometry y="38" width="180" height="62" as="geometry" />
        </mxCell>
        <mxCell id="t-SWyce58LjskkZLz5Ns-55" value="" style="line;strokeWidth=1;fillColor=none;align=left;verticalAlign=middle;spacingTop=-1;spacingLeft=3;spacingRight=3;rotatable=0;labelPosition=right;points=[];portConstraint=eastwest;" vertex="1" parent="t-SWyce58LjskkZLz5Ns-53">
          <mxGeometry y="100" width="180" height="8" as="geometry" />
        </mxCell>
        <mxCell id="t-SWyce58LjskkZLz5Ns-56" value="+ describe(): abstract void&#xa;+ equals(Object obj): boolean&#xa;+ getColor(): String&#xa;+ getmaterial(): String&#xa;+ getSize(): String&#xa;+ getWarmEffect(): int&#xa;+ hashCode(): int&#xa;+ setWarmEffect(int s): void" style="text;strokeColor=none;fillColor=none;align=left;verticalAlign=top;spacingLeft=4;spacingRight=4;overflow=hidden;rotatable=0;points=[[0,0.5],[1,0.5]];portConstraint=eastwest;" vertex="1" parent="t-SWyce58LjskkZLz5Ns-53">
          <mxGeometry y="108" width="180" height="132" as="geometry" />
        </mxCell>
        <mxCell id="t-SWyce58LjskkZLz5Ns-57" value="Coat" style="swimlane;fontStyle=1;align=center;verticalAlign=top;childLayout=stackLayout;horizontal=1;startSize=26;horizontalStack=0;resizeParent=1;resizeParentMax=0;resizeLast=0;collapsible=1;marginBottom=0;" vertex="1" parent="WIyWlLk6GJQsqaUBKTNV-1">
          <mxGeometry x="10" y="1270" width="290" height="90" as="geometry" />
        </mxCell>
        <mxCell id="t-SWyce58LjskkZLz5Ns-59" value="" style="line;strokeWidth=1;fillColor=none;align=left;verticalAlign=middle;spacingTop=-1;spacingLeft=3;spacingRight=3;rotatable=0;labelPosition=right;points=[];portConstraint=eastwest;" vertex="1" parent="t-SWyce58LjskkZLz5Ns-57">
          <mxGeometry y="26" width="290" height="8" as="geometry" />
        </mxCell>
        <mxCell id="t-SWyce58LjskkZLz5Ns-60" value="+ describe(): void&#xa;+ fall(Temperature temp, Person pers, long r): void&#xa;+ warm(Temperature temp, long r): int" style="text;strokeColor=none;fillColor=none;align=left;verticalAlign=top;spacingLeft=4;spacingRight=4;overflow=hidden;rotatable=0;points=[[0,0.5],[1,0.5]];portConstraint=eastwest;" vertex="1" parent="t-SWyce58LjskkZLz5Ns-57">
          <mxGeometry y="34" width="290" height="56" as="geometry" />
        </mxCell>
        <mxCell id="t-SWyce58LjskkZLz5Ns-61" value="CutCoat" style="swimlane;fontStyle=1;align=center;verticalAlign=top;childLayout=stackLayout;horizontal=1;startSize=26;horizontalStack=0;resizeParent=1;resizeParentMax=0;resizeLast=0;collapsible=1;marginBottom=0;" vertex="1" parent="WIyWlLk6GJQsqaUBKTNV-1">
          <mxGeometry x="430" y="1280" width="180" height="80" as="geometry" />
        </mxCell>
        <mxCell id="t-SWyce58LjskkZLz5Ns-63" value="" style="line;strokeWidth=1;fillColor=none;align=left;verticalAlign=middle;spacingTop=-1;spacingLeft=3;spacingRight=3;rotatable=0;labelPosition=right;points=[];portConstraint=eastwest;" vertex="1" parent="t-SWyce58LjskkZLz5Ns-61">
          <mxGeometry y="26" width="180" height="8" as="geometry" />
        </mxCell>
        <mxCell id="t-SWyce58LjskkZLz5Ns-64" value="+ describe(): void&#xa;+ toRaise(Person pers): void" style="text;strokeColor=none;fillColor=none;align=left;verticalAlign=top;spacingLeft=4;spacingRight=4;overflow=hidden;rotatable=0;points=[[0,0.5],[1,0.5]];portConstraint=eastwest;" vertex="1" parent="t-SWyce58LjskkZLz5Ns-61">
          <mxGeometry y="34" width="180" height="46" as="geometry" />
        </mxCell>
        <mxCell id="t-SWyce58LjskkZLz5Ns-65" value="Penguin" style="swimlane;fontStyle=1;align=center;verticalAlign=top;childLayout=stackLayout;horizontal=1;startSize=26;horizontalStack=0;resizeParent=1;resizeParentMax=0;resizeLast=0;collapsible=1;marginBottom=0;" vertex="1" parent="WIyWlLk6GJQsqaUBKTNV-1">
          <mxGeometry x="1160" y="200" width="160" height="310" as="geometry" />
        </mxCell>
        <mxCell id="t-SWyce58LjskkZLz5Ns-66" value="# age: int;&#xa;# color: String&#xa;# health: int&#xa;#number: int&#xa;#pointPX: double&#xa;#sex: String&#xa;#stepP: double" style="text;strokeColor=none;fillColor=none;align=left;verticalAlign=top;spacingLeft=4;spacingRight=4;overflow=hidden;rotatable=0;points=[[0,0.5],[1,0.5]];portConstraint=eastwest;" vertex="1" parent="t-SWyce58LjskkZLz5Ns-65">
          <mxGeometry y="26" width="160" height="104" as="geometry" />
        </mxCell>
        <mxCell id="t-SWyce58LjskkZLz5Ns-67" value="" style="line;strokeWidth=1;fillColor=none;align=left;verticalAlign=middle;spacingTop=-1;spacingLeft=3;spacingRight=3;rotatable=0;labelPosition=right;points=[];portConstraint=eastwest;" vertex="1" parent="t-SWyce58LjskkZLz5Ns-65">
          <mxGeometry y="130" width="160" height="8" as="geometry" />
        </mxCell>
        <mxCell id="t-SWyce58LjskkZLz5Ns-68" value="+ bump(Stalakt st): void&#xa;+ getAge(): String&#xa;+ getColor(): String&#xa;+ getHealth(): int&#xa;+ getNumber(): int&#xa;+getSex(): String&#xa;+ meet(): void&#xa;+ setHealth(int h): void&#xa;+step(Tunnel tunnel): void&#xa;+ stepAnother(): void&#xa;+ toString(): String" style="text;strokeColor=none;fillColor=none;align=left;verticalAlign=top;spacingLeft=4;spacingRight=4;overflow=hidden;rotatable=0;points=[[0,0.5],[1,0.5]];portConstraint=eastwest;" vertex="1" parent="t-SWyce58LjskkZLz5Ns-65">
          <mxGeometry y="138" width="160" height="172" as="geometry" />
        </mxCell>
        <mxCell id="t-SWyce58LjskkZLz5Ns-39" value="" style="line;strokeWidth=1;fillColor=none;align=left;verticalAlign=middle;spacingTop=-1;spacingLeft=3;spacingRight=3;rotatable=0;labelPosition=right;points=[];portConstraint=eastwest;" vertex="1" parent="WIyWlLk6GJQsqaUBKTNV-1">
          <mxGeometry x="2040" y="710" width="160" height="8" as="geometry" />
        </mxCell>
        <mxCell id="t-SWyce58LjskkZLz5Ns-69" value="Abstract Class&#xa;Location" style="swimlane;fontStyle=1;align=center;verticalAlign=top;childLayout=stackLayout;horizontal=1;startSize=40;horizontalStack=0;resizeParent=1;resizeParentMax=0;resizeLast=0;collapsible=1;marginBottom=0;" vertex="1" parent="WIyWlLk6GJQsqaUBKTNV-1">
          <mxGeometry x="1540" y="550" width="210" height="140" as="geometry" />
        </mxCell>
        <mxCell id="t-SWyce58LjskkZLz5Ns-70" value="# h: double&#xa;# w: double" style="text;strokeColor=none;fillColor=none;align=left;verticalAlign=top;spacingLeft=4;spacingRight=4;overflow=hidden;rotatable=0;points=[[0,0.5],[1,0.5]];portConstraint=eastwest;" vertex="1" parent="t-SWyce58LjskkZLz5Ns-69">
          <mxGeometry y="40" width="210" height="40" as="geometry" />
        </mxCell>
        <mxCell id="t-SWyce58LjskkZLz5Ns-71" value="" style="line;strokeWidth=1;fillColor=none;align=left;verticalAlign=middle;spacingTop=-1;spacingLeft=3;spacingRight=3;rotatable=0;labelPosition=right;points=[];portConstraint=eastwest;" vertex="1" parent="t-SWyce58LjskkZLz5Ns-69">
          <mxGeometry y="80" width="210" height="8" as="geometry" />
        </mxCell>
        <mxCell id="t-SWyce58LjskkZLz5Ns-72" value="+ describe(): abstract void&#xa;+ getSize(): abstract double&#xa;+ setSize(double s): abstract void" style="text;strokeColor=none;fillColor=none;align=left;verticalAlign=top;spacingLeft=4;spacingRight=4;overflow=hidden;rotatable=0;points=[[0,0.5],[1,0.5]];portConstraint=eastwest;" vertex="1" parent="t-SWyce58LjskkZLz5Ns-69">
          <mxGeometry y="88" width="210" height="52" as="geometry" />
        </mxCell>
        <mxCell id="t-SWyce58LjskkZLz5Ns-73" value="Corridor" style="swimlane;fontStyle=1;align=center;verticalAlign=top;childLayout=stackLayout;horizontal=1;startSize=26;horizontalStack=0;resizeParent=1;resizeParentMax=0;resizeLast=0;collapsible=1;marginBottom=0;" vertex="1" parent="WIyWlLk6GJQsqaUBKTNV-1">
          <mxGeometry x="1380" y="815" width="160" height="210" as="geometry" />
        </mxCell>
        <mxCell id="t-SWyce58LjskkZLz5Ns-74" value="+ sizeCorridor: double&#xa;# x1: double&#xa;# x2: double" style="text;strokeColor=none;fillColor=none;align=left;verticalAlign=top;spacingLeft=4;spacingRight=4;overflow=hidden;rotatable=0;points=[[0,0.5],[1,0.5]];portConstraint=eastwest;" vertex="1" parent="t-SWyce58LjskkZLz5Ns-73">
          <mxGeometry y="26" width="160" height="54" as="geometry" />
        </mxCell>
        <mxCell id="t-SWyce58LjskkZLz5Ns-75" value="" style="line;strokeWidth=1;fillColor=none;align=left;verticalAlign=middle;spacingTop=-1;spacingLeft=3;spacingRight=3;rotatable=0;labelPosition=right;points=[];portConstraint=eastwest;" vertex="1" parent="t-SWyce58LjskkZLz5Ns-73">
          <mxGeometry y="80" width="160" height="8" as="geometry" />
        </mxCell>
        <mxCell id="t-SWyce58LjskkZLz5Ns-76" value="+ describe(): void&#xa;+getheight(): double&#xa;+getWidth(): double&#xa;+getSize():double&#xa;+getX1(): double&#xa;+getX2():double&#xa;+setSize(double s): void&#xa;+setX(): void" style="text;strokeColor=none;fillColor=none;align=left;verticalAlign=top;spacingLeft=4;spacingRight=4;overflow=hidden;rotatable=0;points=[[0,0.5],[1,0.5]];portConstraint=eastwest;" vertex="1" parent="t-SWyce58LjskkZLz5Ns-73">
          <mxGeometry y="88" width="160" height="122" as="geometry" />
        </mxCell>
        <mxCell id="t-SWyce58LjskkZLz5Ns-81" value="Cave" style="swimlane;fontStyle=1;align=center;verticalAlign=top;childLayout=stackLayout;horizontal=1;startSize=26;horizontalStack=0;resizeParent=1;resizeParentMax=0;resizeLast=0;collapsible=1;marginBottom=0;" vertex="1" parent="WIyWlLk6GJQsqaUBKTNV-1">
          <mxGeometry x="1560" y="1000" width="210" height="230" as="geometry" />
        </mxCell>
        <mxCell id="t-SWyce58LjskkZLz5Ns-82" value="+ sizeCave: double&#xa;# x1: double&#xa;# x2: double" style="text;strokeColor=none;fillColor=none;align=left;verticalAlign=top;spacingLeft=4;spacingRight=4;overflow=hidden;rotatable=0;points=[[0,0.5],[1,0.5]];portConstraint=eastwest;" vertex="1" parent="t-SWyce58LjskkZLz5Ns-81">
          <mxGeometry y="26" width="210" height="54" as="geometry" />
        </mxCell>
        <mxCell id="t-SWyce58LjskkZLz5Ns-83" value="" style="line;strokeWidth=1;fillColor=none;align=left;verticalAlign=middle;spacingTop=-1;spacingLeft=3;spacingRight=3;rotatable=0;labelPosition=right;points=[];portConstraint=eastwest;" vertex="1" parent="t-SWyce58LjskkZLz5Ns-81">
          <mxGeometry y="80" width="210" height="8" as="geometry" />
        </mxCell>
        <mxCell id="t-SWyce58LjskkZLz5Ns-84" value="+ describe(): void&#xa;+getheight(): double&#xa;+getWidth(): double&#xa;+getSize():double&#xa;+getX1(): double&#xa;+getX2():double&#xa;+ setSize(double s): void&#xa;+ setXcorr(Corridor corr): void&#xa;+setXtunn(Tunnel tunnel): void" style="text;strokeColor=none;fillColor=none;align=left;verticalAlign=top;spacingLeft=4;spacingRight=4;overflow=hidden;rotatable=0;points=[[0,0.5],[1,0.5]];portConstraint=eastwest;" vertex="1" parent="t-SWyce58LjskkZLz5Ns-81">
          <mxGeometry y="88" width="210" height="142" as="geometry" />
        </mxCell>
        <mxCell id="t-SWyce58LjskkZLz5Ns-86" value="Side Gallery" style="swimlane;fontStyle=1;align=center;verticalAlign=top;childLayout=stackLayout;horizontal=1;startSize=26;horizontalStack=0;resizeParent=1;resizeParentMax=0;resizeLast=0;collapsible=1;marginBottom=0;" vertex="1" parent="WIyWlLk6GJQsqaUBKTNV-1">
          <mxGeometry x="1830" y="870" width="160" height="86" as="geometry" />
        </mxCell>
        <mxCell id="t-SWyce58LjskkZLz5Ns-87" value="+ field: type" style="text;strokeColor=none;fillColor=none;align=left;verticalAlign=top;spacingLeft=4;spacingRight=4;overflow=hidden;rotatable=0;points=[[0,0.5],[1,0.5]];portConstraint=eastwest;" vertex="1" parent="t-SWyce58LjskkZLz5Ns-86">
          <mxGeometry y="26" width="160" height="26" as="geometry" />
        </mxCell>
        <mxCell id="t-SWyce58LjskkZLz5Ns-88" value="" style="line;strokeWidth=1;fillColor=none;align=left;verticalAlign=middle;spacingTop=-1;spacingLeft=3;spacingRight=3;rotatable=0;labelPosition=right;points=[];portConstraint=eastwest;" vertex="1" parent="t-SWyce58LjskkZLz5Ns-86">
          <mxGeometry y="52" width="160" height="8" as="geometry" />
        </mxCell>
        <mxCell id="t-SWyce58LjskkZLz5Ns-89" value="+ method(type): type" style="text;strokeColor=none;fillColor=none;align=left;verticalAlign=top;spacingLeft=4;spacingRight=4;overflow=hidden;rotatable=0;points=[[0,0.5],[1,0.5]];portConstraint=eastwest;" vertex="1" parent="t-SWyce58LjskkZLz5Ns-86">
          <mxGeometry y="60" width="160" height="26" as="geometry" />
        </mxCell>
      </root>
    </mxGraphModel>
  </diagram>
</mxfile>
